<?xml version="1.0" encoding="utf-8"?>
<!-- Generator: Adobe Illustrator 24.0.0, SVG Export Plug-In . SVG Version: 6.00 Build 0)  -->
<svg version="1.1" id="Layer_1" xmlns="http://www.w3.org/2000/svg" xmlns:xlink="http://www.w3.org/1999/xlink" x="0px" y="0px"
	 viewBox="0 0 481.4 140.7" style="enable-background:new 0 0 481.4 140.7;" xml:space="preserve">
<style type="text/css">
	.st0{fill:#74CDD9;}
	.st1{fill:#B1E0E2;}
	.st2{fill:url(#SVGID_1_);}
</style>
<g>
	<path d="M124.2,124.8c-1.8,2.3-4.2,3.4-7.1,3.4c-2.7,0-5-0.8-6.7-2.6c-1.8-1.7-2.6-3.9-2.6-6.7c0-2.8,0.9-5,2.6-6.7
		c1.8-1.7,4-2.6,6.7-2.6c3,0,5.3,1.1,7,3.4l-2,2.1c-1.2-1.8-2.9-2.6-5-2.6c-1.8,0-3.3,0.6-4.4,1.8c-1.2,1.2-1.8,2.8-1.8,4.7
		c0,1.8,0.6,3.4,1.8,4.6c1.2,1.2,2.7,1.8,4.5,1.8c2.1,0,3.8-0.9,5.2-2.7L124.2,124.8z"/>
	<path d="M155.9,110l4.3,8.4l4.3-8.4h3.3l-6,11.7v6.3h-3v-6.3l-6-11.7H155.9z"/>
	<path d="M211.9,124.8c-1.8,2.3-4.2,3.4-7.1,3.4c-2.7,0-5-0.8-6.7-2.6c-1.8-1.7-2.6-3.9-2.6-6.7c0-2.8,0.9-5,2.6-6.7
		c1.8-1.7,4-2.6,6.7-2.6c3,0,5.3,1.1,7,3.4l-2,2.1c-1.2-1.8-2.9-2.6-5-2.6c-1.8,0-3.3,0.6-4.4,1.8c-1.2,1.2-1.8,2.8-1.8,4.7
		c0,1.8,0.6,3.4,1.8,4.6c1.2,1.2,2.7,1.8,4.5,1.8c2.1,0,3.8-0.9,5.2-2.7L211.9,124.8z"/>
	<path d="M242.3,127.9v-18h3v15.2h8.5v2.8H242.3z"/>
	<path d="M284.6,127.9v-18h3v18H284.6z"/>
	<path d="M331.7,127.9l-8.9-12.7v12.7h-3v-18h3l8.9,12.7V110h3.1v18H331.7z"/>
	<path d="M375,121.3v-2.8h7.1v6.3c-1.7,2.1-4.4,3.4-7.5,3.4c-2.5,0-4.7-0.9-6.4-2.6c-1.8-1.7-2.6-3.9-2.6-6.6c0-2.7,0.9-5,2.6-6.7
		c1.8-1.7,4-2.6,6.6-2.6c3,0,5.3,1.1,7,3.4l-2,2.1c-1.2-1.8-2.9-2.6-5-2.6c-1.8,0-3.3,0.6-4.4,1.8c-1.2,1.2-1.7,2.8-1.7,4.7
		c0,1.8,0.6,3.4,1.8,4.6c1.2,1.2,2.7,1.8,4.5,1.8c1.6,0,2.9-0.5,4.1-1.5v-2.6H375z"/>
</g>
<g>
	<path d="M245.6,66.7l9-34.1h14.8l9,34.1l8.4-34.1h12.4l-13.6,49.5h-13.9L262,46.9l-9.7,35.2h-13.9l-13.6-49.5h12.5L245.6,66.7z"/>
</g>
<g>
	<path d="M40.8,29.8c-5.5,0-10.5,1.7-14.7,4.5C19.2,39,14.6,47,14.6,56v43.7h11.5v-22c4.2,2.9,9.2,4.5,14.7,4.5
		C55.2,82.2,67,70.4,67,56C67,41.5,55.2,29.8,40.8,29.8z M40.8,70.7c-8.1,0-14.7-6.6-14.7-14.7c0-8.1,6.6-14.7,14.7-14.7
		c8.1,0,14.7,6.6,14.7,14.7C55.5,64.1,48.9,70.7,40.8,70.7z"/>
</g>
<g>
	<path d="M447.3,82.3c5.5,0,10.5-1.7,14.7-4.5c6.9-4.7,11.5-12.7,11.5-21.7V12.4H462v22c-4.2-2.9-9.2-4.5-14.7-4.5
		c-14.4,0-26.2,11.7-26.2,26.2C421.1,70.5,432.8,82.3,447.3,82.3z M447.3,41.4c8.1,0,14.7,6.6,14.7,14.7c0,8.1-6.6,14.7-14.7,14.7
		c-8.1,0-14.7-6.6-14.7-14.7C432.6,48,439.2,41.4,447.3,41.4z"/>
</g>
<g>
	<path d="M412.9,50.9c-0.1-0.6-0.3-1.2-0.5-1.8c-0.2-0.6-0.4-1.2-0.6-1.8C408.2,37.2,398.5,30,387.1,30c-4.1,0-7.9,0.9-11.3,2.5
		c0,0-0.1,0-0.1,0.1c-0.4,0.2-0.8,0.4-1.2,0.6c-1.4,0.8-2.8,1.7-4.1,2.8c-3.6,3-6.4,6.9-8,11.4c-0.2,0.6-0.4,1.2-0.6,1.8
		c-0.2,0.6-0.3,1.2-0.4,1.8c-0.4,1.7-0.5,3.4-0.5,5.1c0,1.8,0.2,3.5,0.5,5.2c0.1,0.6,0.3,1.2,0.4,1.8c0.2,0.6,0.4,1.2,0.6,1.8
		c3.6,10.1,13.3,17.4,24.7,17.4c5.5,0,10.5-1.7,14.7-4.5c4.6-3.1,8.1-7.6,10-12.9h-12.9c-2.7,3.6-6.9,5.9-11.7,5.9
		c-4.8,0-9.1-2.3-11.7-5.9c-0.4-0.6-0.8-1.2-1.2-1.8c-0.3-0.6-0.6-1.2-0.8-1.8h39.4c0.3-1.7,0.5-3.4,0.5-5.2v-2.5
		C413.2,52.7,413,51.8,412.9,50.9z M373.4,50.9c0.2-0.6,0.5-1.2,0.8-1.8c0.3-0.6,0.7-1.2,1.1-1.8c2.7-3.6,7-5.9,11.8-5.9
		c4.8,0,9.1,2.3,11.8,5.9c0.4,0.6,0.8,1.2,1.1,1.8c0.3,0.6,0.6,1.2,0.8,1.8H373.4z"/>
</g>
<g>
	<path d="M353,82.1V54.2c-0.1-13.3-10.8-24.1-24.2-24.1c-13.3,0-24.1,10.8-24.2,24.1v27.9h11.5V54.2c0.1-6.9,5.7-12.6,12.7-12.6
		c6.9,0,12.6,5.6,12.7,12.6v27.9H353z"/>
</g>
<path d="M99.4,30.5c-8.7,0-16.4,4.6-20.6,11.5c-2.3,3.7-3.5,8-3.6,12.6v27.9h11.5V54.6c0.1-6.9,5.7-12.6,12.7-12.6h3.1V30.5H99.4z"
	/>
<g>
	<path class="st0" d="M162.2,68.2l-5.7,6l-0.5,0.5c-0.5,0.6-1,1.1-1.6,1.7c-0.1,0.1-0.1,0.1-0.2,0.2c-0.2,0.2-0.4,0.4-0.6,0.5
		c0,0,0,0,0,0c-3.6,3-8.3,4.9-13.5,4.9c-11.6,0-21.1-9.4-21.1-21.1c0-4.8,1.6-9.3,4.4-12.8h0c-4.4,5.9-4,14.3,1.2,19.8
		c5.8,6.1,15.4,6.4,21.6,0.7c0.1-0.1,0.2-0.1,0.2-0.2c0.5-0.5,0.9-0.9,1.3-1.4l6.7-7l6,6.3l0.3,0.3L162.2,68.2z"/>
	<path class="st1" d="M208.9,60c0.8-4.6-0.5-9.6-4-13.2c-5.8-6.1-15.5-6.4-21.6-0.7c-0.1,0-0.1,0.1-0.2,0.1
		c-0.4,0.4-0.8,0.8-1.1,1.2l-0.1,0.1l-6.8,7.1l-6.3-6.6l-0.3-0.4l-1.1-1.2l5.2-5.4l0.9-0.9c3.8-3.8,9.1-6.1,14.9-6.1
		c11.7,0,21.2,9.5,21.2,21.2C209.5,56.9,209.3,58.5,208.9,60z"/>
	<linearGradient id="SVGID_1_" gradientUnits="userSpaceOnUse" x1="109.1827" y1="57.3854" x2="220.3732" y2="57.3854">
		<stop  offset="2.666171e-03" style="stop-color:#B1E0E2"/>
		<stop  offset="0.2475" style="stop-color:#ABDEE1"/>
		<stop  offset="0.5809" style="stop-color:#98D7DE"/>
		<stop  offset="0.9639" style="stop-color:#77CED9"/>
		<stop  offset="1" style="stop-color:#74CDD9"/>
	</linearGradient>
	<path class="st2" d="M212.1,76.6c-3,2.9-6.5,4.9-10.2,6.1c-1.4,0.4-2.8,0.8-4.3,1c-8.2,1.2-16.9-1.5-23.1-8l-9.8-10.2l-2.9-3
		l-4.9-5.1l-10.1-10.6c-2.7-2.8-6.1-4.4-9.7-4.7c-4.3-0.4-8.7,1-12.1,4.2c-0.7,0.6-1.2,1.3-1.7,2h0c-2.7,3.6-4.4,8-4.4,12.8
		c0,11.6,9.4,21.1,21.1,21.1c5.1,0,9.8-1.8,13.5-4.9c-10.7,9.5-27.1,9-37-1.5c-10.1-10.6-9.7-27.5,0.9-37.6c3-2.9,6.5-4.9,10.3-6.1
		c1.4-0.4,2.8-0.8,4.3-1c8.2-1.2,16.9,1.5,23.1,8l9.7,10.2l2.9,3l4.9,5.1L182.6,68l0.1,0.1c2.7,2.8,6.1,4.3,9.7,4.7
		c4.3,0.4,8.7-1,12-4.2c0.6-0.6,1.2-1.3,1.7-1.9c0.2-0.3,0.5-0.6,0.7-0.9c1.1-1.7,1.8-3.7,2.2-5.6c0.3-1.5,0.5-3.1,0.5-4.7
		c0-11.7-9.5-21.2-21.2-21.2c-5.8,0-11,2.3-14.9,6.1l0.2-0.2c0.6-0.6,1.2-1.3,1.8-1.9C186,28,202.9,28.4,213,39
		C223.2,49.6,222.8,66.5,212.1,76.6z"/>
</g>
<g>
	<path d="M392.2,109.7h5v1h-2v5.8h-1.1v-5.8h-1.9V109.7z M401.2,115.1l-1.7-3.3v4.7h-1.1v-6.8h1.2l2.1,4.4l2.2-4.4h1.1v6.8H404v-4.7
		l-1.6,3.3H401.2z"/>
</g>
</svg>
