<?xml version="1.0" encoding="UTF-8"?>
<svg width="14px" height="14px" viewBox="0 0 14 14" version="1.1" xmlns="http://www.w3.org/2000/svg" xmlns:xlink="http://www.w3.org/1999/xlink">
    <!-- Generator: Sketch 61.2 (89653) - https://sketch.com -->
    <title>Path</title>
    <desc>Created with Sketch.</desc>
    <g id="Symbols" stroke="none" stroke-width="1" fill="none" fill-rule="evenodd" stroke-linecap="round" stroke-linejoin="round">
        <g id="Nav_Bar" transform="translate(-312.000000, -13.000000)" stroke="#FFFFFF" stroke-width="1.5">
            <g id="Group-2" transform="translate(313.000000, 11.000000)">
                <path d="M6.7195014,3.42078551 L8.26481307,6.74360592 L11.2573531,6.74360592 C11.663698,6.72859318 12.0049877,7.04486163 12.0200005,7.45120654 C12.0280073,7.67039258 11.9379308,7.88157183 11.7747923,8.02769586 L9.17258358,10.5928732 L10.6138069,13.9086877 C10.7809488,14.3090275 10.5917882,14.7694183 10.1914484,14.9365601 C9.96525641,15.03064 9.70803808,15.0146264 9.49585798,14.8915219 L6.01290164,12.9318585 L2.5299453,14.8945244 C2.15462673,15.1117088 1.67321811,14.9825992 1.45703461,14.6072806 C1.33493097,14.3951005 1.31791652,14.1378822 1.41199638,13.9116902 L2.85321969,10.5958757 L0.251010933,8.03069841 C-0.0542481718,7.76347159 -0.0852745071,7.30007826 0.180951466,6.99381831 C0.328076346,6.82567559 0.543258994,6.73359743 0.766448437,6.74360592 L3.76899701,6.74360592 L5.31130612,3.41778296 C5.52248537,3.02945334 6.00889824,2.88633186 6.39722786,3.09751111 C6.53334339,3.17157398 6.64543854,3.28366912 6.7195014,3.42078551 Z" id="Path"></path>
            </g>
        </g>
    </g>
</svg>